<?xml version="1.0" encoding="UTF-8" standalone="no"?>
<svg width="30" height="30" viewBox="0 0 30 30" fill="none" version="1.1" id="svg1" sodipodi:docname="screen.svg" inkscape:version="1.4 (e7c3feb1, 2024-10-09)"
   xmlns:inkscape="http://www.inkscape.org/namespaces/inkscape"
   xmlns:sodipodi="http://sodipodi.sourceforge.net/DTD/sodipodi-0.dtd"
   xmlns="http://www.w3.org/2000/svg"
   xmlns:svg="http://www.w3.org/2000/svg">
   <defs id="defs1" />
   <sodipodi:namedview id="namedview1" pagecolor="#505050" bordercolor="#eeeeee" borderopacity="1" inkscape:showpageshadow="0" inkscape:pageopacity="0" inkscape:pagecheckerboard="0" inkscape:deskcolor="#505050" inkscape:zoom="22.557288" inkscape:cx="12.346342" inkscape:cy="15.804205" inkscape:window-width="1920" inkscape:window-height="1092" inkscape:window-x="0" inkscape:window-y="25" inkscape:window-maximized="1" inkscape:current-layer="svg1" />
   <path d="m 5.6298158,8.1885969 c 0,-0.1990371 0.1613546,-0.3603917 0.3603917,-0.3603917 H 24.009792 c 0.199081,0 0.360392,0.1613546 0.360392,0.3603917 V 19.000348 c 0,0.19908 -0.161311,0.360392 -0.360392,0.360392 H 5.9902075 c -0.1990371,0 -0.3603917,-0.161312 -0.3603917,-0.360392 z M 5.9902075,6.3866384 c -0.9951957,0 -1.8019584,0.8067585 -1.8019584,1.8019585 V 19.000348 c 0,0.995258 0.8067642,1.801958 1.8019584,1.801958 h 5.5117005 l -0.351021,1.872019 c -0.09148,0.48797 0.28285,0.939037 0.779282,0.939037 h 6.139662 c 0.496447,0 0.870836,-0.451067 0.779296,-0.939037 l -0.351035,-1.872019 h 5.5117 c 0.995258,0 1.801959,-0.8067 1.801959,-1.801958 V 8.1885969 c 0,-0.9952 -0.806701,-1.8019585 -1.801959,-1.8019585 z M 17.178078,20.802306 h -4.356156 l -0.283801,1.513645 h 4.923758 z" fill="currentColor" fill-rule="evenodd" clip-rule="evenodd" id="path1" style="display:none;stroke-width:1.44157" />
   <text xml:space="preserve" style="font-style:normal;font-variant:normal;font-weight:normal;font-stretch:normal;font-size:28.0628px;font-family:Serif;-inkscape-font-specification:'Serif, Normal';font-variant-ligatures:normal;font-variant-caps:normal;font-variant-numeric:normal;font-variant-east-asian:normal;text-align:start;writing-mode:lr-tb;direction:ltr;text-anchor:start;opacity:1;fill:#000000;fill-opacity:1;stroke-width:1.29693" x="0.98227394" y="21.741661" id="text2">
      <tspan sodipodi:role="line" id="tspan2" x="0.98227394" y="21.741661" style="stroke-width:1.29693">pd</tspan>
   </text>
   <text xml:space="preserve" style="font-size:18.7279px;font-family:'Times New Roman';-inkscape-font-specification:'Times New Roman, Normal';text-align:start;writing-mode:lr-tb;direction:ltr;text-anchor:start;opacity:1;fill:#000000;fill-opacity:1;stroke-width:0.865512" x="-4.7404966" y="15" id="text3">
      <tspan sodipodi:role="line" id="tspan3" x="-4.7404966" y="15" />
   </text>
</svg>
